# This file uses centimeters as units for non-parametric coordinates.

v 0.019416 0.119510 -0.172956
v -0.121077 0.073861 -0.172956
v -0.121077 -0.073861 -0.172956
v 0.019416 -0.119510 -0.172956
v 0.106245 -0.000000 -0.172956
v 0.043415 0.193371 -0.066063
v -0.183907 0.119510 -0.066063
v -0.183907 -0.119510 -0.066063
v 0.043415 -0.193371 -0.066063
v 0.183907 -0.000000 -0.066063
v 0.043415 0.193371 0.066063
v -0.183907 0.119510 0.066063
v -0.183907 -0.119510 0.066063
v 0.043415 -0.193371 0.066063
v 0.183907 -0.000000 0.066063
v 0.019416 0.119510 0.172956
v -0.121077 0.073861 0.172956
v -0.121077 -0.073861 0.172956
v 0.019416 -0.119510 0.172956
v 0.106245 -0.000000 0.172956
v -0.019416 -0.000000 -0.213786
v -0.019416 -0.000000 0.213786
vt 0.000000 0.200000
vt 0.200000 0.200000
vt 0.400000 0.200000
vt 0.600000 0.200000
vt 0.800000 0.200000
vt 1.000000 0.200000
vt 0.000000 0.400000
vt 0.200000 0.400000
vt 0.400000 0.400000
vt 0.600000 0.400000
vt 0.800000 0.400000
vt 1.000000 0.400000
vt 0.000000 0.600000
vt 0.200000 0.600000
vt 0.400000 0.600000
vt 0.600000 0.600000
vt 0.800000 0.600000
vt 1.000000 0.600000
vt 0.000000 0.800000
vt 0.200000 0.800000
vt 0.400000 0.800000
vt 0.600000 0.800000
vt 0.800000 0.800000
vt 1.000000 0.800000
vt 0.100000 0.000000
vt 0.300000 0.000000
vt 0.500000 0.000000
vt 0.700000 0.000000
vt 0.900000 0.000000
vt 0.100000 1.000000
vt 0.300000 1.000000
vt 0.500000 1.000000
vt 0.700000 1.000000
vt 0.900000 1.000000
vn -0.266405 0.819909 -0.506732
vn -0.266405 0.819909 -0.506732
vn -0.266405 0.819909 -0.506732
vn -0.266405 0.819909 -0.506732
vn -0.862104 0.000000 -0.506732
vn -0.862104 0.000000 -0.506732
vn -0.862104 0.000000 -0.506732
vn -0.862104 0.000000 -0.506732
vn -0.266405 -0.819909 -0.506732
vn -0.266405 -0.819909 -0.506732
vn -0.266405 -0.819909 -0.506732
vn -0.266405 -0.819909 -0.506732
vn 0.697456 -0.506732 -0.506732
vn 0.697456 -0.506732 -0.506732
vn 0.697456 -0.506732 -0.506732
vn 0.697456 -0.506732 -0.506732
vn 0.697457 0.506732 -0.506732
vn 0.697457 0.506732 -0.506732
vn 0.697457 0.506732 -0.506732
vn 0.697457 0.506732 -0.506732
vn -0.309017 0.951057 0.000000
vn -0.309017 0.951057 0.000000
vn -0.309017 0.951057 0.000000
vn -0.309017 0.951057 0.000000
vn -1.000000 0.000000 0.000000
vn -1.000000 0.000000 0.000000
vn -1.000000 0.000000 0.000000
vn -1.000000 0.000000 0.000000
vn -0.309017 -0.951057 0.000000
vn -0.309017 -0.951057 0.000000
vn -0.309017 -0.951057 0.000000
vn -0.309017 -0.951057 0.000000
vn 0.809017 -0.587785 0.000000
vn 0.809017 -0.587785 0.000000
vn 0.809017 -0.587785 0.000000
vn 0.809017 -0.587785 0.000000
vn 0.809017 0.587785 0.000000
vn 0.809017 0.587785 0.000000
vn 0.809017 0.587785 0.000000
vn 0.809017 0.587785 0.000000
vn -0.266405 0.819909 0.506732
vn -0.266405 0.819909 0.506732
vn -0.266405 0.819909 0.506732
vn -0.266405 0.819909 0.506732
vn -0.862104 0.000000 0.506732
vn -0.862104 0.000000 0.506732
vn -0.862104 0.000000 0.506732
vn -0.862104 0.000000 0.506732
vn -0.266405 -0.819909 0.506732
vn -0.266405 -0.819909 0.506732
vn -0.266405 -0.819909 0.506732
vn -0.266405 -0.819909 0.506732
vn 0.697456 -0.506732 0.506732
vn 0.697456 -0.506732 0.506732
vn 0.697456 -0.506732 0.506732
vn 0.697456 -0.506732 0.506732
vn 0.697457 0.506732 0.506732
vn 0.697457 0.506732 0.506732
vn 0.697457 0.506732 0.506732
vn 0.697457 0.506732 0.506732
vn -0.115167 0.354448 -0.927956
vn -0.115167 0.354448 -0.927957
vn -0.115167 0.354448 -0.927956
vn -0.372689 0.000000 -0.927957
vn -0.372689 0.000000 -0.927957
vn -0.372689 0.000000 -0.927957
vn -0.115167 -0.354448 -0.927956
vn -0.115167 -0.354448 -0.927956
vn -0.115167 -0.354448 -0.927957
vn 0.301511 -0.219061 -0.927956
vn 0.301511 -0.219061 -0.927956
vn 0.301511 -0.219061 -0.927957
vn 0.301511 0.219061 -0.927957
vn 0.301511 0.219061 -0.927957
vn 0.301511 0.219061 -0.927956
vn -0.115167 0.354448 0.927956
vn -0.115167 0.354448 0.927957
vn -0.115167 0.354448 0.927956
vn -0.372689 0.000000 0.927957
vn -0.372689 0.000000 0.927957
vn -0.372689 0.000000 0.927957
vn -0.115167 -0.354448 0.927956
vn -0.115167 -0.354448 0.927956
vn -0.115167 -0.354448 0.927957
vn 0.301511 -0.219061 0.927956
vn 0.301511 -0.219061 0.927956
vn 0.301511 -0.219061 0.927957
vn 0.301511 0.219061 0.927957
vn 0.301511 0.219061 0.927957
vn 0.301511 0.219061 0.927956
f 1/1/1 2/2/2 7/8/3 6/7/4
f 2/2/5 3/3/6 8/9/7 7/8/8
f 3/3/9 4/4/10 9/10/11 8/9/12
f 4/4/13 5/5/14 10/11/15 9/10/16
f 5/5/17 1/6/18 6/12/19 10/11/20
f 6/7/21 7/8/22 12/14/23 11/13/24
f 7/8/25 8/9/26 13/15/27 12/14/28
f 8/9/29 9/10/30 14/16/31 13/15/32
f 9/10/33 10/11/34 15/17/35 14/16/36
f 10/11/37 6/12/38 11/18/39 15/17/40
f 11/13/41 12/14/42 17/20/43 16/19/44
f 12/14/45 13/15/46 18/21/47 17/20/48
f 13/15/49 14/16/50 19/22/51 18/21/52
f 14/16/53 15/17/54 20/23/55 19/22/56
f 15/17/57 11/18/58 16/24/59 20/23/60
f 2/2/61 1/1/62 21/25/63
f 3/3/64 2/2/65 21/26/66
f 4/4/67 3/3/68 21/27/69
f 5/5/70 4/4/71 21/28/72
f 1/6/73 5/5/74 21/29/75
f 16/19/76 17/20/77 22/30/78
f 17/20/79 18/21/80 22/31/81
f 18/21/82 19/22/83 22/32/84
f 19/22/85 20/23/86 22/33/87
f 20/23/88 16/24/89 22/34/90
